<?xml version="1.0" standalone="no"?>
<!DOCTYPE svg PUBLIC "-//W3C//DTD SVG 20010904//EN"
 "http://www.w3.org/TR/2001/REC-SVG-20010904/DTD/svg10.dtd">
<svg version="1.0" xmlns="http://www.w3.org/2000/svg"
 width="512.000000pt" height="512.000000pt" viewBox="0 0 512.000000 512.000000"
 preserveAspectRatio="xMidYMid meet">
<metadata>
Created by potrace 1.13, written by Peter Selinger 2001-2015
</metadata>
<g transform="translate(0.000000,512.000000) scale(0.100000,-0.100000)"
fill="#000000" stroke="none">
<path d="M554 4410 c-74 -24 -139 -78 -177 -149 -59 -107 -57 -47 -57 -1736 0
-1361 2 -1558 15 -1610 43 -164 170 -283 369 -344 l68 -21 1915 0 c1740 0
1917 1 1946 16 53 27 96 75 118 133 49 131 49 143 49 1727 0 1668 6 1542 -77
1634 -50 55 -113 86 -200 95 -61 7 -61 8 -68 43 -16 87 -79 168 -157 203 l-53
24 -1815 2 c-1771 2 -1816 2 -1876 -17z m3661 -244 c19 -8 36 -16 37 -18 2 -2
5 -723 8 -1603 5 -1166 10 -1614 18 -1650 6 -27 14 -60 17 -73 l5 -22 -1738 0
c-1531 0 -1745 2 -1797 15 -85 23 -137 48 -183 90 -78 70 -73 -62 -70 1655 3
1468 4 1537 21 1564 39 59 -74 55 1865 56 1535 0 1787 -2 1817 -14z m353 -282
l23 -15 -4 -1477 c-2 -1010 -7 -1491 -14 -1521 -18 -74 -61 -89 -83 -28 -25
72 -30 334 -30 1671 l0 1399 43 -7 c23 -4 52 -14 65 -22z"/>
<path d="M910 4008 c-78 -22 -127 -83 -149 -186 -15 -73 -15 -911 0 -984 23
-106 71 -164 154 -187 26 -7 206 -11 526 -11 547 0 550 0 613 70 69 76 71 97
71 620 0 523 -2 544 -71 620 -63 70 -65 70 -618 69 -293 0 -505 -5 -526 -11z"/>
<path d="M2581 3997 c-84 -42 -84 -209 -1 -252 44 -23 1396 -23 1440 0 83 43
83 210 -1 252 -35 18 -1403 18 -1438 0z"/>
<path d="M2557 3413 c-54 -57 -52 -171 4 -218 l31 -25 708 0 708 0 31 25 c56
47 58 161 4 218 l-27 27 -716 0 -716 0 -27 -27z"/>
<path d="M2581 2867 c-38 -18 -63 -71 -63 -127 0 -56 25 -109 63 -127 18 -10
186 -13 717 -13 764 0 735 -2 768 62 35 68 11 176 -47 205 -35 18 -1403 18
-1438 0z"/>
<path d="M800 2333 c-81 -30 -101 -164 -36 -240 l24 -28 1585 0 1585 0 26 24
c54 51 57 157 6 215 l-28 31 -1574 2 c-865 1 -1580 -1 -1588 -4z"/>
<path d="M789 1785 c-29 -16 -59 -79 -59 -126 0 -41 23 -93 51 -113 21 -14 88
-16 659 -16 l637 0 21 23 c62 67 52 196 -19 232 -41 22 -1251 21 -1290 0z"/>
<path d="M2492 1758 c-42 -46 -54 -120 -28 -182 29 -70 -16 -66 763 -66 509 0
709 3 727 12 30 13 66 82 66 124 -1 40 -34 110 -58 123 -14 8 -242 11 -735 11
l-714 0 -21 -22z"/>
<path d="M815 1233 c-46 -12 -85 -73 -85 -135 0 -44 35 -113 66 -126 36 -17
1242 -17 1279 0 33 15 65 76 65 123 0 45 -20 94 -50 120 -22 20 -37 20 -639
21 -339 1 -625 0 -636 -3z"/>
<path d="M2509 1205 c-58 -32 -78 -144 -36 -206 12 -18 34 -39 47 -46 20 -10
178 -12 728 -10 l704 2 28 32 c55 61 49 167 -11 218 l-31 25 -701 0 c-588 -1
-706 -3 -728 -15z"/>
</g>
</svg>
